:SAMPLES-PER-SECOND 24
:FULLY-SPECIFIED
:DEGREES
601
root  2.71175 39.1949 27.3284 178.446 -48.6061 177.498
RightUpLeg  -8.98798 -14.8237 -18.4767
RightLeg  29.7354 16.372 9.70074
RightFoot  -0.451374 -1.44598 14.8689
RightToes  -1.74623e-010 0 -2.59999e-017
Spine  4.24311 1.58743 -1.59562
Spine1  14.0288 1.63344 -1.44905
HEad  -20.7868 -30.7878 15.8159
LeftShoulder1  2.03928 -3.42422 -23.1703
LeftArm  20.2096 5.54352 -49.7636
LeftForeArm  123.457 -78.0342 -123.103
LeftHand  0.583889 9.4829 16.9556
RightShoulder  3.34944 5.62548 30.7966
RightArm  -25.3443 -3.77914 36.7357
RightForeArm  1.4504 10.9601 9.78971
RightHand  -0.136447 -4.82447 -26.1185
LeftUpLeg  0.827403 9.70694 9.84105
LeftLeg  25.8806 -1.11931 -0.232294
LeftFoot  -8.66893 0.390748 -14.6492
LeftToes  -6.27559e-011 -2.10356e-011 8.24929e-012
602
root  2.51768 39.9587 27.4443 178.572 -44.0606 178.884
RightUpLeg  -11.8325 -17.9547 -17.0082
RightLeg  28.0343 18.9898 10.467
RightFoot  7.33544 -3.01569 18.5428
RightToes  -1.74623e-010 0 -2.59999e-017
Spine  2.34752 2.12287 0.449588
Spine1  14.8161 2.83145 -2.99185
HEad  -18.7335 -29.5997 15.1431
LeftShoulder1  2.08266 -3.88079 -21.87
LeftArm  20.0332 12.4904 -50.6558
LeftForeArm  123.412 -78.5459 -120.187
LeftHand  0.290366 7.58089 16.1047
RightShoulder  3.30347 5.45895 30.9754
RightArm  -12.0107 -5.78528 36.4879
RightForeArm  -7.36585 20.5854 6.64947
RightHand  -0.282465 -1.90119 -9.76528
LeftUpLeg  2.89623 6.86207 9.29956
LeftLeg  21.2125 -1.10439 -0.13787
LeftFoot  -4.74233 0.821539 -13.6937
LeftToes  -6.27559e-011 -2.10356e-011 8.24929e-012
603
root  2.41904 40.0312 27.6127 178.608 -37.8406 179.789
RightUpLeg  -16.2907 -18.4498 -14.889
RightLeg  27.736 15.9959 8.72982
RightFoot  7.54188 -3.12002 18.9335
RightToes  -1.74623e-010 0 -2.59999e-017
Spine  0.99249 2.66691 0.9581
Spine1  16.656 3.43202 -2.88871
HEad  -18.1586 -25.9471 13.3496
LeftShoulder1  2.05501 -4.23632 -20.1062
LeftArm  18.0305 16.8245 -52.957
LeftForeArm  125.784 -79.0067 -118.082
LeftHand  0.150843 6.79007 14.0345
RightShoulder  2.86821 4.87411 28.2759
RightArm  -11.2143 -4.79795 38.1061
RightForeArm  -5.0106 29.075 6.46777
RightHand  0.176277 0.174359 3.79623
LeftUpLeg  5.48438 5.09059 8.94137
LeftLeg  18.8143 -2.9037 -0.819481
LeftFoot  -5.85564 0.669263 -13.1511
LeftToes  -6.27559e-011 -2.10356e-011 8.24929e-012
604
root  2.38736 39.6738 27.8859 178.536 -31.893 -179.74
RightUpLeg  -19.9564 -18.6297 -12.7728
RightLeg  24.5097 13.205 6.29481
RightFoot  5.60671 -2.41935 16.3968
RightToes  -1.74623e-010 0 -2.59999e-017
Spine  1.72762 2.33852 0.488297
Spine1  16.3839 2.92547 -2.06777
HEad  -17.75 -20.8469 11.4629
LeftShoulder1  1.97351 -4.25905 -18.8927
LeftArm  16.9856 18.4355 -53.6539
LeftForeArm  122.811 -79.1109 -116.324
LeftHand  0.139369 6.68623 14.0656
RightShoulder  2.51754 4.4196 25.7397
RightArm  -11.3971 -1.16363 39.9997
RightForeArm  -2.1709 37.3584 8.69102
RightHand  0.216068 -1.4137 6.61023
LeftUpLeg  8.47791 7.03367 9.34822
LeftLeg  16.3452 -3.89592 -1.72383
LeftFoot  -9.46341 0.287589 -14.0434
LeftToes  -6.27559e-011 -2.10356e-011 8.24929e-012
605
root  2.41271 39.051 28.1856 178.711 -27.3572 179.969
RightUpLeg  -22.462 -20.3323 -11.0232
RightLeg  18.0033 13.0078 4.55659
RightFoot  5.29219 -2.21827 15.3435
RightToes  -1.74623e-010 0 -2.59999e-017
Spine  3.34067 1.40527 -2.03712
Spine1  15.197 1.21483 0.367494
HEad  -17.4305 -15.5816 9.07585
LeftShoulder1  2.06594 -4.14096 -20.6126
LeftArm  17.4998 14.6241 -50.7284
LeftForeArm  108.897 -79.7623 -104.673
LeftHand  0.0749095 6.07113 15.2591
RightShoulder  2.61189 4.58936 26.2537
RightArm  -10.3875 4.92733 38.7829
RightForeArm  5.37701 45.9266 11.2209
RightHand  0.00341132 -3.14342 1.38654
LeftUpLeg  10.6804 7.09878 7.9422
LeftLeg  13.8424 2.47049 -0.896731
LeftFoot  -14.8148 -0.314725 -13.5337
LeftToes  -6.27559e-011 -2.10356e-011 8.24929e-012
